{"title":"No Name on the Bullet (Western 1959)  Audie Murphy, Charles Drak","uid":9426692,"size":573590248,"categoryP":"video","categoryS":"movies","magnet":"?xt=urn:btih:f2e97ec113a27c59b61ccff5084cec6570cbfcdb&amp;dn=No+Name+on+the+Bullet+%28Western+1959%29++Audie+Murphy%2C+Charles+Drak&amp;tr=udp%3A%2F%2Ftracker.openbittorrent.com%3A80&amp;tr=udp%3A%2F%2Fopen.demonii.com%3A1337&amp;tr=udp%3A%2F%2Ftracker.coppersurfer.tk%3A6969&amp;tr=udp%3A%2F%2Fexodus.desync.com%3A6969","seeders":8,"leechers":2,"uploader":"BurtonW","files":1,"time":1388715889,"description":" &lt;a href=&quot;http://www.imdb.com/title/tt0052002/?ref_=fn_al_tt_1&quot; rel=&quot;nofollow&quot; target=&quot;_NEW&quot;&gt;http://www.imdb.com/title/tt0052002/?ref_=fn_al_tt_1&lt;/a&gt;\n\n\nA very good quality film.\n\n\nEnglish subtitles!\n\n\nStoryline:\n\nCool, cultured John Gant rides into Lordsburg. Gant is a professional killer, and although no one knows who he is there to kill, they are all worried. Everyone has enemies, and maybe Gant is in town for them. While they wait for him to make his move, paranoia starts taking over.\n\n\nTechnical info:\n\n\nGeneral:\n\nComplete name:                 : No Name on the Bullet (Western 1959)  Audie Murphy, Charles Drake &amp; Joan Evans.mp4\n\nFormat                         : MPEG-4\nFormat profile                 : Base Media / Version 2\nCodec ID                       : mp42\nFile size                      : 547 MiB\nDuration                       : 1h 13mn\nOverall bit rate mode          : Variable\nOverall bit rate               : 1 035 Kbps\nEncoded date                   : UTC 2014-01-02 10:02:09\nTagged date                    : UTC 2014-01-02 12:10:00\n\n\nVideo:\n\nID                             : 1\nFormat                         : AVC\nFormat/Info                    : Advanced Video Codec\nFormat profile                 : &lt;a class=&quot;__cf_email__&quot; href=&quot;/cdn-cgi/l/email-protection&quot; data-cfemail=&quot;f7ba969e99b7bbc3d9c7&quot;&gt;[email&amp;#160;protected]&lt;/a&gt;&lt;script cf-hash='f9e31' type=&quot;text/javascript&quot;&gt;\n/* &lt;![CDATA[ */!function(){try{var t=&quot;currentScript&quot;in document?document.currentScript:function(){for(var t=document.getElementsByTagName(&quot;script&quot;),e=t.length;e--;)if(t[e].getAttribute(&quot;cf-hash&quot;))return t[e]}();if(t&amp;&amp;t.previousSibling){var e,r,n,i,c=t.previousSibling,a=c.getAttribute(&quot;data-cfemail&quot;);if(a){for(e=&quot;&quot;,r=parseInt(a.substr(0,2),16),n=2;a.length-n;n+=2)i=parseInt(a.substr(n,2),16)^r,e+=String.fromCharCode(i);e=document.createTextNode(e),c.parentNode.replaceChild(e,c)}}}catch(u){}}();/* ]]&gt; */&lt;/script&gt;\nFormat settings, CABAC         : Yes\nFormat settings, ReFrames      : 8 frames\nCodec ID                       : avc1\nCodec ID/Info                  : Advanced Video Coding\nDuration                       : 1h 13mn\nBit rate mode                  : Variable\nBit rate                       : 864 Kbps\nWidth                          : 720 pixels\nHeight                         : 304 pixels\nDisplay aspect ratio           : 2.35:1\nFrame rate mode                : Constant\nFrame rate                     : 25.000 fps\nColor space                    : YUV\nChroma subsampling             : 4:2:0\nBit depth                      : 8 bits\nScan type                      : Progressive\nBits/(Pixel*Frame)             : 0.158\nStream size                    : 457 MiB (83%)\nWriting library                : x264 core 130 r2273 b3065e6\nEncoding settings              : Deleted\nEncoded date                   : UTC 2014-01-02 10:02:09\nTagged date                    : UTC 2014-01-02 12:10:00\nColor primaries                : BT.601 PAL\nTransfer characteristics       : BT.709\nMatrix coefficients            : BT.601\n\nAudio:\n\nID                             : 2\nFormat                         : AAC\nFormat/Info                    : Advanced Audio Codec\nFormat profile                 : LC\nCodec ID                       : 40\nDuration                       : 1h 13mn\nBit rate mode                  : Variable\nBit rate                       : 160 Kbps\nMaximum bit rate               : 205 Kbps\nChannel(s)                     : 2 channels\nChannel positions              : Front: L R\nSampling rate                  : 48.0 KHz\nCompression mode               : Lossy\nDelay relative to video        : 80ms\nStream size                    : 84.5 MiB (15%)\nLanguage                       : English\nEncoded date                   : UTC 2014-01-02 10:02:09\nTagged date                    : UTC 2014-01-02 12:09:59\n\nText:\n\nID                             : 3\nFormat                         : mp4s\nCodec ID                       : E0\nDuration                       : 1h 13mn\nBit rate mode                  : Variable\nBit rate                       : 6 632 bps\nMaximum bit rate               : 4 167 Mbps\nDelay relative to video        : 80ms\nStream size                    : 3.47 MiB (1%)\nLanguage                       : English\nEncoded date                   : UTC 2014-01-02 10:02:09\nTagged date                    : UTC 2014-01-02 12:09:59\n\n","torrent":{"xt":"urn:btih:f2e97ec113a27c59b61ccff5084cec6570cbfcdb","amp;dn":"No+Name+on+the+Bullet+%28Western+1959%29++Audie+Murphy%2C+Charles+Drak","amp;tr":["udp%3A%2F%2Ftracker.openbittorrent.com%3A80","udp%3A%2F%2Fopen.demonii.com%3A1337","udp%3A%2F%2Ftracker.coppersurfer.tk%3A6969","udp%3A%2F%2Fexodus.desync.com%3A6969"],"infoHash":"f2e97ec113a27c59b61ccff5084cec6570cbfcdb","infoHashBuffer":{"type":"Buffer","data":[242,233,126,193,19,162,124,89,182,28,207,245,8,76,236,101,112,203,252,219]},"announce":[],"urlList":[]}}